<mxfile host="app.diagrams.net" modified="2023-05-24T06:13:48.432Z" agent="Mozilla/5.0 (X11; Linux x86_64) AppleWebKit/537.36 (KHTML, like Gecko) Chrome/98.0.4758.80 Safari/537.36" version="21.3.2" etag="IIYv_b5ZZcx8IOJSRXxK" type="github">
  <diagram name="Page-1" id="I7ErDZg4tgHU9jW4rj6E">
    <mxGraphModel>
      <root>
        <mxCell id="0" />
        <mxCell id="1" parent="0" />
      </root>
    </mxGraphModel>
  </diagram>
</mxfile>
